<?xml version="1.0" encoding="UTF-8"?>
<svg xmlns="http://www.w3.org/2000/svg" version="1.1" viewBox="0 0 298 205">
  <defs>
    <style>
      .cls-1 {
        fill: #f9f7f7;
      }

      .cls-2 {
        fill: none;
      }

      .cls-3 {
        fill: #1c1c1c;
        stroke: #f9f7f7;
        stroke-miterlimit: 10;
        stroke-width: .2px;
      }

      .cls-4 {
        fill: #840000;
      }
    </style>
  </defs>
  <!-- Generator: Adobe Illustrator 28.6.0, SVG Export Plug-In . SVG Version: 1.2.0 Build 709)  -->
  <g>
    <g id="Capa_1">
      <g id="Capa_1-2" data-name="Capa_1">
        <g id="Capa_1-2">
          <g>
            <path class="cls-1" d="M279.5,139s1-1.3,1.8-2.6h3.2l10.9-1.5,2.2-8.8v-1.3l-.2-7v-1.2h0l-1-7.7h0l-.5-2.6-1.2-7.5c-.6-.5-2.4-2.6-3.2-3.5,0,0-2.6-2.6-4.8-4-3.2-2.4-11.4-6.1-22-5.4-1,0-2.4,0-3.4.3-6.2-1.8-13.2-3.6-21-4.8-7.2-1.2-13.8-1.8-19.8-2.2l-2-2.6c-11.2-8.3-21.6-11.8-23.6-12.6-3.7-1.3-11.2-3.8-21-5.4-5.9-1.1-16.4-2.4-30.3-1.9-5.9,0-16.4.9-29.8,4-2.3.5-15.7,4.1-30.7,13.9h0c-.3.2-.6.3-.8.5h.3l-2.3,2.1c-1.3.9-2.4,1.6-2.9,2.1h-7.5c-7.2,0-11.7,0-13.8,2.9-4.5,6.1-4.8,16.9-2.9,25.5l-1,10.5,5.6,1.3c.3,4.3,1.6,9.9,5.9,13.9-5.3,0-8.7.3-9.1.9,0,2.1,25.2,4,75.2,8.8,6.6.5,48.9,2.6,65.1,3.5,26,1.1,32.1,1.9,51.6,2.6,20.7.5,50.2.9,50.2-.9s-13.8-2.6-28.2-4c3.4-.3,7.9-1.3,11.4-5.4l-.3.3h0c0,0,0-.1,0-.1Z"/>
            <path class="cls-3" d="M169.4,157.9h-22.6c-11.7,8.8-26.3,13.9-42,13.7-37.5-.5-68.1-32.5-67.2-70.5.9-45.5,48.5-67.8,68.2-68.3,16.7-.4,29.4,6.1,29.4,6.1,3.7,1.9,6.4,3.9,8.4,5.4h23.6c-3.4-4-7.5-6.6-11.7-9.7-1.8-1.3-2.4-3.5-1.6-5.7l4.2-9.4c.8-1.9,0-4.3-1.6-5.4-4.5-2.6-9.3-4.8-14.1-6.6-2.2-.9-4.2,0-5.3,2.1l-3.7,8.3c-.8,2.1-3.2,2.9-5.3,2.4-4.5-1.3-9.1-2.1-13.5-2.9-2.2,0-3.7-1.9-4-4l-.6-9.1c0-2.1-1.8-4-4-4h-1.6c-4.8,0-9.3.3-14.1.9-2.2.3-3.7,2.1-3.4,4.3l.6,9.1c0,2.1-1.3,4-3.4,4.6-4.2,1.1-8.5,2.4-12.5,4.3-2.2.9-4.2,0-5.6-1.9l-4.8-8.1c-1-1.9-3.4-2.6-5.6-1.6-4,2.1-10.9,7.5-14.1,9.9-1,.9-1.3,2.4-.6,3.5l5.6,9.1c1,1.9.8,4-.8,5.7-3.2,2.9-6.1,6.1-8.7,9.7-1.3,1.9-3.7,2.1-5.6,1.1l-8.7-5.1c-1.8-1.1-4.2-.5-5.6,1.3-2.9,4.6-5.3,9.1-7.5,13.9-.8,1.9,0,4.3,1.6,5.4l9.5,5.7c1.8,1.1,2.6,3.2,2.2,5.1-1.3,4-2.2,8.3-2.9,12.6-.3,2.1-2.2,3.8-4.5,3.8H5.2c-2.2,0-4,1.6-4.2,4v4c0,4,0,8.1.8,12.1,0,2.1,2.2,3.8,4,3.8h10.7c2.2,0,3.7,1.6,4.2,3.8.8,4.3,2.2,8.3,3.4,12.3.8,2.1,0,4.3-1.8,5.4l-7.9,4.6c-1.8,1.1-2.6,3.8-1.6,5.7,2.4,4.6,5.3,9.1,8.5,13.4,1.3,1.6,3.4,2.1,5.3,1.1l7.8-4.6c1.8-1.1,4-.9,5.3.9,2.9,3.2,6.3,6,9.8,9.4,1.3,1.3,1.8,3.5,1,5.4l-4,8.1c-1,2.1,0,4.6,1.8,5.7,4.2,2.1,8.7,4.3,13.3,6.4,1.8.9,4.2,0,5.3-1.9l3.2-6.1c1-1.9,3.2-2.6,5-2.1,4.2,1.3,8.7,1.9,13.3,2.4,2.2,0,3.7,1.9,4,4l.6,8.3c0,2.1,1.8,3.8,4,4h6.9c2.4,0,5.9,0,8.7-.3,2.2,0,4-2.1,3.7-4.6l-.6-7.2c0-2.1,1.3-4.3,3.4-4.6,4.8-.9,9.3-2.1,13.5-3.8,1.8-.9,4,0,5.3,1.6l5,7.5c1,1.6,3.4,2.4,5.3,1.3,4.2-2.1,9.8-5.1,12.5-6.4.8-.5,1-1.3,1-2.4,0-1.9-2.6-10.6-2.9-13.2-.3-3,1.4-7.3,10.1-13.2l.2-.4h0c0,0-.1,0-.1,0Z"/>
            <path class="cls-2" d="M249.5,142.1v.3c1.8.3,4,.5,6.1.5-.8-.3-1.8-.9-2.6-1.3-.6-.3-4-2.6-6.1-5.4l-41.2.5c-.8,1.1-1.6,2.1-2.4,3.2h4.5c11.9.5,23.9.9,41.7,2.1h0c0,0,0,0,0,0Z"/>
            <path class="cls-2" d="M295.4,109.4c-26.6,2.1-53.4,2.1-80.2,0,26.3,5.1,53.7,5.1,80.2,0Z"/>
            <polygon class="cls-2" points="238.5 119.7 215.6 117.4 215.9 117.7 214.3 119.9 238.5 121.5 238.5 119.7"/>
            <path class="cls-2" d="M123,59.6c-4.5,1.1-9.5,1.6-13.8,3.5-7.2,2.6-14.9,5.7-21.6,9.9,2.6-1.6,5.6-2.9,8.5-4,4.2-1.6,9.1-3.2,13.3-4.8,4.5-1.6,9.3-1.9,13.8-2.9,6.1-1.6,11.9,0,17,3.8,5.3,3.8,9.5,8.6,13.3,13.4h.3c-1.6-2.9-3.2-5.7-5.3-8.1-6.6-8.1-14.9-13.9-25.5-10.7h.2c0,0,0-.1,0-.1Z"/>
            <path class="cls-2" d="M275.5,126c-5-.3-11.7-.3-17.3-.3-3.4-1.1-11.4-2.9-16-4-10.7,0-21.3-1.3-31.9-.9,10.4.5,22.4,2.6,31.6,2.6,4.8,1.1,11.7,2.9,16.4,4,5.9-.3,11.7-.3,17.5-.3,2.6-.5,6.3-1.3,8.7-2.1,2.9-.9,6.4-2.6,9.3-3.4h-.8c-2.8.5-6.3,2.1-9.1,2.6-2.4.3-6.1,1.1-8.7,1.6h.2Z"/>
            <path class="cls-2" d="M67.7,96.8c-5,0-9.1,7.2-9.1,16.1s4,16.1,9.1,16.1,9.1-7.2,9.1-16.1-4-16.1-9.1-16.1ZM64.7,101.4c1-.9,2.2-1.3,2.9-1.3l.3-.3-1.3,9.4-4.2-4.8c.3-.5,1-1.9,2.4-2.9h0c0,0,0,0,0,0ZM59.5,114.2c0-2.1.6-4.3.8-5.7l5.3,5.7c-1.6,1.9-3.4,3.8-5.3,5.7-.6-1.6-.8-3.5-.8-5.7ZM64.5,127.2c-1.6-.9-2.2-2.6-2.2-2.9v-.3l4.5-6.4c.8,3.2,1.3,6.4,2.2,9.7-.3,0-2.4,1.3-4.5,0h0v-.2h0ZM74.4,118.3c-.6,2.6-1.3,4.6-2.2,6l-2.6-9.4h-.3c1.6-1.1,3.7-.9,5.3-1.6,0,1.1.3,2.9-.3,5.1h0,0ZM74.6,109.7l-4.2.9v-10.5.3c.8.5,2.4,1.9,3.4,4.3.8,2.1.8,4,.8,5.1h0c0,0,0,0,0,0Z"/>
            <path class="cls-2" d="M179.5,100.3c-5.3.3-9.5,6.1-11.4,10.1-.6,1.1-1.6-1.3-1.6,9.4s5.9,19.3,13,19.3v-.3c7.2,0,13-10.5,13-19.3s-6.1-19.3-13-19.3h0ZM172.6,106c1.6-1.8,3.4-2.6,4.2-2.9v-.3.3h0l-.8,12.6c-2.2-1.6-4-3.2-6.1-4.8.3-.9.8-2.9,2.6-4.8h.1ZM170.8,130.9c-.8-2.1-1.6-4.8-2.2-8.1-.6-2.9-.6-5.4-.6-7.2l7.8,6.1c-1.6,2.9-3.4,6.1-5,9.1h0ZM178.5,137.6c-3.2-.3-5-2.6-5-2.9h.3l5-9.4,5,10.7c-.3.3-2.4,1.9-5.3,1.6h0,0ZM189.1,126.6c-.6,1.9-1.3,3.5-2.2,4.8v.3l-4.8-9.9c2.6-1.3,5-2.6,7.8-4,.3,1.9.3,5.1-.8,8.8h0ZM188.1,112.2l-6.9,3.5v-13.4c.8.3,3.2,1.6,4.8,4,1.8,2.4,2.2,4.8,2.2,6h0Z"/>
            <path class="cls-2" d="M167.6,97.4c2.2-2.4,4.5-3.5,5.9-4l-70.2-2.4c20.2,3.8,40.6,7.7,60.8,11.8.6-1.3,1.6-3.2,3.4-5.4h0q0,0,0,0Z"/>
            <path class="cls-2" d="M97.7,114.8h-.3v2.1l46.2,6.1-46-8.3h0q0,0,0,0Z"/>
            <path class="cls-2" d="M83.1,96.1c-5-10.5-17.5-13.7-24.4-2.9,8.2-8.1,17.3-5.7,23.2,3.8,1.6,2.6,2.9,5.7,3.7,8.8,0-3.2-.8-6.6-2.4-9.7h0,0Z"/>
            <path class="cls-2" d="M91.1,127.2h-1.6c-.6,1.6-1.6,2.9-2.6,4.3-.3.3-1,1.1-2.4,2.1,16.4.3,35.1,1.3,42.5,1.6h.3c17.5,1.1,27.6,1.6,37.1,2.4l-73.3-10.1v-.3h0c0,0,0,0,0,0Z"/>
            <path class="cls-4" d="M60.1,108.6c-.3,1.3-.8,3.5-.8,5.7s.3,4,.8,5.7c1.8-1.9,3.7-3.8,5.3-5.7l-5.3-5.7Z"/>
            <path class="cls-4" d="M62.3,123.9v.3c0,.3.6,2.1,2.2,2.9,2.2,1.3,4.2,0,4.5,0-.8-3.2-1.3-6.4-2.2-9.7l-4.5,6.4h0v.2h0Z"/>
            <path class="cls-4" d="M67.9,99.8l-.3.3c-.8,0-1.8.5-2.9,1.3-1.3,1.1-2.2,2.4-2.4,2.9l4.2,4.8,1.3-9.4h0c0,0,0,0,0,0Z"/>
            <path class="cls-4" d="M69.3,114.8h.3l2.6,9.4c.8-1.3,1.6-3.2,2.2-6,.6-2.1.3-4,.3-5.1-1.6.9-3.7.5-5.3,1.6h0,0Z"/>
            <path class="cls-4" d="M187,131.7v-.3c.8-1.3,1.6-2.9,2.2-4.8,1-3.8,1-7,.8-8.8-2.6,1.3-5,2.6-7.8,4l4.8,9.9h0Z"/>
            <path class="cls-4" d="M173.8,134.6h-.3c0,.3,1.8,2.6,5,2.9,2.9.3,5-1.3,5.3-1.6l-5-10.7-5,9.4h0Z"/>
            <path class="cls-4" d="M181.1,102.2v13.4l6.9-3.5c0-1.1-.3-3.5-2.2-6-1.6-2.4-4-3.8-4.8-4h0Z"/>
            <path class="cls-4" d="M103.4,90.9h-.3.3Z"/>
            <path class="cls-4" d="M294.4,121.8h-.3c-.3,0-.6,0-.8,0h.8s0,0,.2,0h0Z"/>
            <polygon class="cls-4" points="58.6 93.1 58.6 93.1 58.6 93.1 58.6 93.1"/>
            <path class="cls-4" d="M246,149.3c20.7.5,50.2.9,50.2-.9s-13.8-2.6-28.2-4c3.4-.3,7.9-1.3,11.4-5.4,0,0,1-1.3,1.8-2.6h3.2l10.9-1.8,2.2-9.7c0-.9-.3-1.1-1-1.1s-1-.3-1.3-1.1v-1.1h-1c-2.9,1-6.5,2.7-9.3,3.5-2.4.9-6.1,1.6-8.7,2.1-5.9,0-11.7,0-17.5.3-4.8-1.1-11.7-2.9-16.4-4-9.3,0-21.3-2.1-31.6-2.6,10.7-.5,21.3.9,31.9.9,4.5,1.1,12.5,2.9,16,4,5.6,0,12.3,0,17.3.3,2.6-.5,6.3-1.3,8.7-1.6,2.7-.4,6.2-2.1,9.1-2.6l-6.6.4v-1.6h.3l-.6-1.3,11.2-1.6c0-1.5.2-3.4,0-5.6-.3-2.4-.9-4.4-1.5-6h-7.2l.3-.3c0-.9-1.3-2.1-4.5-4.6h-5.9l-3.4-1.6h-33.9c0,.3-6.6,6.4-6.6,6.4h-20.5l-27.1-12.6c20.7,2.4,43.3,4,67.8,4.3,13.3,0,27.6,1.6,39.9.9-.6-.5-2.4-2.6-3.2-3.5,0,0-2.6-2.6-4.8-4-3.2-2.4-11.4-6.1-22-5.4-1,0-2.4,0-3.4.3,6.1,2.1,11.9,4.6,17.5,7.5-28.2-11-58.2-16.3-88.3-16.1,9.3-1.1,19.8-.3,29.1.3l-1.2-1.3c-11.2-8.3-21.6-11.8-23.6-12.6-3.7-1.3-11.2-3.8-21-5.4-5.9-1.1-16.4-2.4-30.3-1.9-5.9,0-16.4.9-29.8,4-2.4.5-16.3,4.3-31.6,14.4,7.2,0,15.4.5,15.4.5l5.9,5.1h33.9c15.1,0,36.1.5,51.2.9,11.4,0,23.2,1.1,33.7,6.1,5.3,2.4,10.9,4.3,15.7,7.7-5-3.2-10.7-4.6-16-6.6-10.9-4.3-22.4-5.1-33.5-4.8-15.1,0-35.9-.3-51.2-.9-8.5,0-25.5-.5-33.9-.9,0,0-1.8.5-.8,0l-6.1-3.8c-2.2,0-10.4-.9-15.4-1.3h-1c-1.3.9-2.4,1.6-2.9,2.1h-7.5c-7.2,0-11.7,0-13.8,2.9-4.5,6.1-4.8,16.9-2.9,25.5l-1,10.5,5.6,1.3c.3,4.3,1.6,9.9,5.9,13.9-5.3,0-8.7.3-9.1.9,0,2.1,25.2,4,75.2,8.8,6.6.5,48.9,2.6,65.1,3.5,26,1.1,32.1,1.9,51.6,2.6l-.3.4v-.2c0,0-.1,0-.1,0ZM295.4,109.4c-26.6,5.1-54,5.1-80.2,0,26.8,2.1,53.7,2.1,80.2,0ZM215.9,117.7l-.3-.3,22.9,2.1v1.9l-24.2-1.6,1.6-2.1h0q0,0,0,0ZM205.6,136.8l41.2-.5c2.2,2.6,5.6,5.1,6.1,5.4.8.5,1.8,1.1,2.6,1.3-2.2,0-4.2-.3-6.1-.5v-.3c-17.9-1.3-29.8-1.6-41.7-2.1h-4.5c.8-1.1,1.6-2.1,2.4-3.2h0c0,0,0,0,0,0ZM153.5,78.4c-3.7-4.8-7.9-9.7-13.3-13.4-5-3.8-10.9-5.4-17-3.8-4.5,1.1-9.3,1.3-13.8,2.9-4.2,1.6-9.1,3.2-13.3,4.8-2.9,1.1-5.9,2.4-8.5,4,6.6-4.3,14.3-7.2,21.6-9.9,4.2-1.9,9.3-2.4,13.8-3.5,10.7-3.2,18.8,2.6,25.5,10.7,2.2,2.4,3.7,5.1,5.3,8.1h-.4c0,0,0,.1,0,.1ZM103.4,90.9h0l70.2,2.4c-1.3.5-3.7,1.6-5.9,4-1.8,2.1-2.9,4-3.4,5.4-20.2-4-40.6-8.1-60.8-11.8h-.3.3q0,0,0,0ZM97.4,114.8h.3l46,8.3-46.2-6.1v-2.1h0q0,0,0,0ZM67.7,128.9c-5,0-9.1-7.2-9.1-16.1s4-16.1,9.1-16.1,9.1,7.2,9.1,16.1-4,16.1-9.1,16.1ZM58.6,93.1h0c6.9-10.7,19.4-7.5,24.4,2.9,1.6,2.9,2.4,6.4,2.4,9.7-.8-3.2-2.2-6.1-3.7-8.8-5.9-9.4-14.9-11.8-23.2-3.8h0,0ZM127.2,135.2h-.3c-7.5-.3-26-1.3-42.5-1.6,1.3-1.1,2.2-1.9,2.4-2.1,1-1.3,2.2-2.6,2.6-4.3h1.6v.3l73.3,10.1c-9.5-.9-19.7-1.3-37.1-2.4h0c0,0,0,0,0,0ZM179.5,139v.3c-7.2,0-13-8.6-13-19.3s1-8.3,1.6-9.4c1.8-4,6.1-9.9,11.4-10.1,6.9,0,13,10.5,13,19.3s-5.9,19.3-13,19.3h0Z"/>
            <path class="cls-4" d="M168.1,115.7c0,1.9,0,4.3.6,7.2.6,3.2,1.3,6,2.2,8.1,1.6-2.9,3.4-6.1,5-9.1l-7.8-6.1h0Z"/>
            <path class="cls-4" d="M176.9,103c-.8.3-2.6,1.1-4.2,2.9-1.8,1.9-2.4,4-2.6,4.8,2.2,1.6,4,3.2,6.1,4.8l.8-12.6h-.1Z"/>
            <path class="cls-4" d="M176.9,102.7v.3h0v-.3Z"/>
            <path class="cls-4" d="M70.3,100.3v10.1l4.2-.9c0-1.1,0-2.9-.8-5.1-1-2.4-2.6-3.8-3.4-4.3h0v.2h0Z"/>
            <path class="cls-1" d="M252.3,135.8c1.8,2.1,4.6,3.4,7.6,3.4s5.7-1.3,7.6-3.4h-15.2Z"/>
          </g>
        </g>
      </g>
    </g>
  </g>
</svg>